<svg width="121" height="78" viewBox="0 0 121 78" fill="none" xmlns="http://www.w3.org/2000/svg">
<path d="M35.0713 26.2724C39.2882 25.5223 43.4294 24.6966 47.5959 24.0725C53.8677 23.1397 59.7108 20.839 65.6485 18.7841C69.0081 17.6243 72.5191 16.7229 76.0363 16.2754C78.5324 15.9539 81.1672 16.4771 83.7074 16.8301C85.3148 17.057 85.34 17.3154 85.0059 19.1182C79.5851 17.5928 74.1895 17.8638 68.8254 19.4648C74.2462 18.5698 79.6481 18.0277 84.9492 20.2528C84.2243 23.7007 82.4972 26.3985 79.8876 28.5164C76.2002 31.5041 71.977 33.3195 67.2432 33.5779C61.148 33.912 56.6474 31.0125 53.3823 26.0392C52.9033 25.308 52.4179 25.037 51.5733 25.0748C48.2325 25.2135 45.0494 25.9446 41.9734 27.2557C40.5929 27.8482 39.1621 28.384 37.6997 28.7055C35.8844 29.1278 35.0839 28.321 35.0713 26.2724Z" fill="#F54748"/>
<path d="M57.4732 20.3155C56.9311 18.601 56.5088 16.2184 57.7127 14.34C58.1476 13.6592 58.5132 13.4827 58.9103 12.9091C59.6856 11.7745 60.1521 9.68814 58.4313 5.50276C59.0238 5.92508 59.8054 6.60583 60.3411 7.65218C60.9526 8.8435 60.8706 9.76377 61.0597 10.7597C61.2803 11.9384 61.9422 13.5395 63.9277 15.2981C63.7197 14.6551 63.4991 13.7601 63.4487 12.6696C63.4045 11.598 63.5369 10.6904 63.6882 10.0411C63.9151 10.703 64.2807 11.5476 64.8858 12.4301C65.2892 13.0163 65.7052 13.489 66.0834 13.8609C65.5603 13.0919 64.8669 11.8817 64.4131 10.2743C64.0664 9.04521 63.6882 6.99033 64.1736 4.53835C64.5896 2.43936 65.472 0.895067 66.0834 0C66.0393 0.769001 66.0582 2.23766 66.802 3.81979C67.9429 6.25916 70.023 7.33702 70.6218 7.63958C72.122 8.39597 72.4309 7.98626 75.3997 8.8372C77.7193 9.49905 78.8791 9.83312 79.9381 10.7471C80.5432 11.264 81.9488 12.6885 82.327 15.7645C80.9655 15.5376 79.125 15.3359 76.9503 15.4052C74.5173 15.4809 72.6893 15.8591 71.4538 16.1238C69.5629 16.5272 68.0438 17.0315 65.0056 18.0337C63.2407 18.6199 61.98 19.08 59.7486 19.7041C58.7968 19.9814 58.0089 20.1831 57.4732 20.3155Z" fill="#FDC55E"/>
<path d="M72.393 15.6889C72.4245 15.7897 73.8113 15.235 75.7401 14.9703C78.0345 14.6551 80.02 14.8947 81.4761 15.2098C81.4887 14.1635 81.1924 13.4386 80.997 13.0604C80.4865 12.0582 79.6985 11.5035 78.8476 10.911C78.1857 10.4445 77.587 10.142 77.1772 9.95288C77.7319 10.3878 78.419 11.0118 79.0871 11.8628C79.7805 12.7452 80.228 13.5899 80.518 14.2517C79.5536 14.1004 78.129 13.9807 76.4587 14.2517C74.1958 14.6299 72.3552 15.5754 72.393 15.6889Z" fill="white"/>
<path d="M120.925 70.7337C121.046 71.4119 121.088 72.3349 120.521 72.9875C120.316 73.2221 120.164 73.2731 119.981 73.472C119.619 73.8646 119.33 74.6295 119.781 76.3071C119.572 76.1184 119.304 75.8176 119.147 75.3943C118.968 74.915 119.052 74.5632 119.031 74.1807C119.005 73.7218 118.832 73.0793 118.15 72.3145C118.197 72.5694 118.239 72.9213 118.197 73.3343C118.161 73.7422 118.061 74.0788 117.966 74.3184C117.914 74.0584 117.814 73.7167 117.625 73.3496C117.5 73.1048 117.363 72.906 117.232 72.7428C117.395 73.064 117.604 73.5535 117.699 74.1858C117.772 74.6703 117.809 75.4708 117.494 76.3734C117.222 77.1484 116.797 77.689 116.513 78C116.571 77.7093 116.639 77.1535 116.435 76.5161C116.12 75.532 115.365 75.017 115.144 74.8742C114.599 74.5122 114.457 74.6499 113.345 74.1756C112.474 73.8085 112.039 73.6198 111.672 73.2221C111.462 72.9926 110.99 72.3807 111 71.1977C112.222 69.4232 118.517 69.9331 120.925 70.7337Z" fill="#F54748"/>
</svg>
