<svg width="24" height="22" viewBox="0 0 24 22" fill="none" xmlns="http://www.w3.org/2000/svg">
<path d="M11.0489 0.926805C11.3483 0.00549436 12.6517 0.00549579 12.9511 0.926806L14.9187 6.98253C15.0526 7.39456 15.4365 7.67352 15.8697 7.67352H22.2371C23.2058 7.67352 23.6086 8.91313 22.8249 9.48253L17.6736 13.2252C17.3231 13.4798 17.1764 13.9312 17.3103 14.3432L19.2779 20.3989C19.5773 21.3203 18.5228 22.0864 17.7391 21.517L12.5878 17.7743C12.2373 17.5197 11.7627 17.5197 11.4122 17.7743L6.2609 21.517C5.47719 22.0864 4.42271 21.3203 4.72206 20.3989L6.68969 14.3432C6.82356 13.9312 6.6769 13.4798 6.32642 13.2252L1.17511 9.48253C0.391392 8.91313 0.794168 7.67352 1.76289 7.67352H8.13026C8.56349 7.67352 8.94744 7.39456 9.08132 6.98253L11.0489 0.926805Z" fill="#FFB800"/>
</svg>
